<svg width="164" height="47" viewBox="0 0 164 47" fill="none" xmlns="http://www.w3.org/2000/svg">
    <path fill-rule="evenodd" clip-rule="evenodd" d="M57.245 32.9004V19.0341H60.1003V32.9004H57.245ZM58.6865 17.1496C58.1321 17.1496 57.6655 16.9668 57.2866 16.6011C56.9078 16.2355 56.7183 15.762 56.7183 15.1808C56.7183 14.5995 56.9078 14.126 57.2866 13.7604C57.6655 13.3947 58.1321 13.2119 58.6865 13.2119C59.2594 13.2119 59.7307 13.3947 60.1003 13.7604C60.4699 14.126 60.6548 14.5995 60.6548 15.1808C60.6548 15.762 60.4699 16.2355 60.1003 16.6011C59.7307 16.9668 59.2594 17.1496 58.6865 17.1496ZM70.3018 33.2942C68.9342 33.2942 67.7191 33.0082 66.6564 32.4363C65.5938 31.8644 64.7575 31.0441 64.1476 29.9753C63.5378 28.9064 63.2328 27.6407 63.2328 26.1782V25.7563C63.2328 24.2937 63.5378 23.0327 64.1476 21.9733C64.7575 20.9138 65.5938 20.0935 66.6564 19.5122C67.7191 18.9309 68.9342 18.6403 70.3018 18.6403C71.6694 18.6403 72.8891 18.9309 73.961 19.5122C75.0329 20.0935 75.8738 20.9138 76.4837 21.9733C77.0935 23.0327 77.3985 24.2937 77.3985 25.7563V26.1782C77.3985 27.6407 77.0935 28.9064 76.4837 29.9753C75.8738 31.0441 75.0329 31.8644 73.961 32.4363C72.8891 33.0082 71.6694 33.2942 70.3018 33.2942ZM70.3018 30.7066C71.5585 30.7066 72.5796 30.2987 73.365 29.4831C74.1504 28.6673 74.5432 27.5376 74.5432 26.0938V25.8406C74.5432 24.3968 74.1551 23.2671 73.3789 22.4514C72.6027 21.6358 71.577 21.2279 70.3018 21.2279C69.0636 21.2279 68.0517 21.6358 67.2663 22.4514C66.4809 23.2671 66.0881 24.3968 66.0881 25.8406V26.0938C66.0881 27.5376 66.4809 28.6673 67.2663 29.4831C68.0517 30.2987 69.0636 30.7066 70.3018 30.7066ZM82.0279 33.2942C81.3811 33.2942 80.8405 33.0786 80.4062 32.6473C79.9719 32.216 79.7548 31.6629 79.7548 30.9878C79.7548 30.3128 79.9719 29.7643 80.4062 29.3424C80.8405 28.9205 81.3811 28.7095 82.0279 28.7095C82.6748 28.7095 83.2153 28.9252 83.6496 29.3565C84.0839 29.7878 84.3011 30.3315 84.3011 30.9878C84.3011 31.6629 84.0839 32.216 83.6496 32.6473C83.2153 33.0786 82.6748 33.2942 82.0279 33.2942ZM87.5167 32.9004V19.0341H90.372V32.9004H87.5167ZM88.9583 17.1496C88.4038 17.1496 87.9372 16.9668 87.5583 16.6011C87.1795 16.2355 86.99 15.762 86.99 15.1808C86.99 14.5995 87.1795 14.126 87.5583 13.7604C87.9372 13.3947 88.4038 13.2119 88.9583 13.2119C89.5312 13.2119 90.0024 13.3947 90.372 13.7604C90.7417 14.126 90.9265 14.5995 90.9265 15.1808C90.9265 15.762 90.7417 16.2355 90.372 16.6011C90.0024 16.9668 89.5312 17.1496 88.9583 17.1496ZM94.1699 32.9004V19.0341H96.9697V21.1154H97.4133C97.672 20.5529 98.134 20.0279 98.7993 19.5403C99.4647 19.0528 100.453 18.8091 101.766 18.8091C102.8 18.8091 103.72 19.0434 104.524 19.5122C105.328 19.981 105.961 20.642 106.423 21.4951C106.885 22.3483 107.116 23.3749 107.116 24.575V32.9004H104.26V24.8C104.26 23.5999 103.965 22.7139 103.373 22.142C102.782 21.5701 101.969 21.2842 100.934 21.2842C99.7511 21.2842 98.804 21.6779 98.0924 22.4655C97.3809 23.253 97.0252 24.3968 97.0252 25.8969V32.9004H94.1699ZM116.375 33.2942C114.637 33.2942 113.196 32.9004 112.05 32.1129C110.904 31.3253 110.202 30.1347 109.943 28.5408L112.605 27.8939C112.752 28.6627 113.002 29.2721 113.353 29.7221C113.704 30.1722 114.143 30.4909 114.67 30.6784C115.197 30.8659 115.765 30.9597 116.375 30.9597C117.28 30.9597 117.978 30.7816 118.468 30.4253C118.957 30.069 119.202 29.6096 119.202 29.0471C119.202 28.4845 118.971 28.072 118.509 27.8095C118.047 27.547 117.363 27.3313 116.458 27.1626L115.515 26.9938C114.591 26.8251 113.75 26.5813 112.993 26.2625C112.235 25.9438 111.634 25.5031 111.191 24.9406C110.747 24.3781 110.525 23.6562 110.525 22.7749C110.525 21.4623 111.006 20.4451 111.967 19.7232C112.928 19.0013 114.203 18.6403 115.793 18.6403C117.326 18.6403 118.588 18.9919 119.576 19.695C120.565 20.3982 121.207 21.3498 121.503 22.5499L118.842 23.3093C118.676 22.4655 118.324 21.8701 117.788 21.5233C117.253 21.1764 116.587 21.0029 115.793 21.0029C115.016 21.0029 114.406 21.1482 113.963 21.4389C113.519 21.7295 113.298 22.1373 113.298 22.6624C113.298 23.2249 113.515 23.6374 113.949 23.8999C114.383 24.1624 114.97 24.3593 115.709 24.4906L116.68 24.6593C117.659 24.8281 118.555 25.0625 119.369 25.3625C120.182 25.6625 120.824 26.0938 121.295 26.6563C121.766 27.2188 122.002 27.9689 122.002 28.9064C122.002 30.294 121.494 31.3722 120.477 32.141C119.461 32.9098 118.093 33.2942 116.375 33.2942ZM130.124 33.1536C129.09 33.1536 128.165 32.9192 127.352 32.4504C126.539 31.9816 125.902 31.316 125.44 30.4534C124.978 29.5909 124.747 28.5595 124.747 27.3595V19.0341H127.602V27.1626C127.602 28.3626 127.898 29.2487 128.489 29.8206C129.08 30.3925 129.903 30.6784 130.956 30.6784C132.12 30.6784 133.058 30.28 133.77 29.4831C134.481 28.6861 134.837 27.5376 134.837 26.0375V19.0341H137.692V32.9004H134.893V30.8191H134.449C134.19 31.3816 133.728 31.9113 133.063 32.4082C132.398 32.9051 131.418 33.1536 130.124 33.1536ZM141.463 32.9004V19.0341H144.262V20.6654H144.706C144.928 20.0841 145.283 19.6575 145.773 19.3857C146.263 19.1138 146.868 18.9778 147.589 18.9778H149.224V21.5936H147.478C146.554 21.5936 145.796 21.8514 145.205 22.367C144.614 22.8827 144.318 23.6749 144.318 24.7437V32.9004H141.463ZM157.513 33.2942C156.127 33.2942 154.917 32.9989 153.882 32.4082C152.847 31.8176 152.038 30.9831 151.456 29.905C150.874 28.8267 150.583 27.5751 150.583 26.15V25.8125C150.583 24.3687 150.869 23.1077 151.442 22.0295C152.015 20.9513 152.814 20.1169 153.84 19.5263C154.866 18.9356 156.053 18.6403 157.402 18.6403C158.714 18.6403 159.865 18.9356 160.854 19.5263C161.842 20.1169 162.614 20.9373 163.168 21.9873C163.723 23.0374 164 24.2656 164 25.6719V26.7688H153.494C153.531 27.9876 153.933 28.958 154.699 29.68C155.466 30.4019 156.423 30.7628 157.569 30.7628C158.641 30.7628 159.449 30.5191 159.994 30.0315C160.539 29.544 160.96 28.9814 161.256 28.3439L163.612 29.5815C163.353 30.1065 162.979 30.6597 162.489 31.241C161.999 31.8222 161.357 32.3098 160.563 32.7035C159.768 33.0973 158.751 33.2942 157.513 33.2942ZM153.521 24.5468H161.089C161.015 23.4968 160.646 22.6764 159.98 22.0858C159.315 21.4951 158.446 21.1998 157.375 21.1998C156.303 21.1998 155.429 21.4951 154.755 22.0858C154.08 22.6764 153.669 23.4968 153.521 24.5468Z" fill="#00BED9"/>
    <path d="M31.725 0C40.1612 0 47 6.83885 47 15.275C47 23.7111 40.1612 30.55 31.725 30.55C23.2889 30.55 16.45 23.7111 16.45 15.275C16.45 6.83885 23.2889 0 31.725 0Z" fill="#00BED9"/>
    <path d="M7.05 14.1C10.9436 14.1 14.1 10.9436 14.1 7.05C14.1 3.15639 10.9436 0 7.05 0C3.15639 0 0 3.15639 0 7.05C0 10.9436 3.15639 14.1 7.05 14.1Z" fill="#00BED9"/>
    <path d="M0 39.9501V23.5001C0 20.4995 1.8743 17.9368 4.51617 16.9191C5.85053 15.8032 5.83831 14.6871 4.47957 13.5713C6.19325 12.6703 7.90693 12.6703 9.62034 13.5713C8.26169 14.6871 8.24953 15.8032 9.58362 16.919C12.2254 17.9368 14.0999 20.4995 14.0999 23.5001V39.9501C14.0999 43.8437 10.9435 47.0001 7.05009 47.0001C3.15637 47.0001 0 43.8437 0 39.9501Z" fill="#00BFDB"/>
</svg>
